<svg xmlns="http://www.w3.org/2000/svg" width="98" height="86" viewBox="0 0 98 86" fill="none"><g clip-path="url(#clip0_373_26)"><path d="M85.7684 86H11.9255C5.7072 86 0.654785 81.4931 0.654785 75.9437V10.0563C0.654785 4.50684 5.7072 0 11.9255 0H86.157C92.3753 0 97.4278 4.50684 97.4278 10.0563V76.28C97.0391 81.4931 91.9867 86 85.7684 86Z" fill="#03045E"></path><path d="M78.8236 13.3468L49.0104 24.9926C48.6228 25.1335 48.2515 25.3648 47.9604 25.6841C47.7872 25.8742 47.2798 26.5539 47.4188 27.3846L47.4667 58.7575C47.4667 58.7582 47.4667 58.7588 47.4667 58.7595C47.4667 58.7592 47.4667 58.7597 47.4667 58.7595C47.4674 59.2413 47.6432 59.6669 47.8808 59.9928C48.116 60.3153 48.498 60.6568 49.0497 60.8598L78.8124 72.6518L78.8435 72.6641L78.8749 72.6756C79.5235 72.9129 80.2616 72.9336 80.9283 72.7183C81.5649 72.513 82.6517 71.8571 82.6517 70.5671V15.4359C82.6517 14.1459 81.5649 13.49 80.9283 13.2846C80.2616 13.0694 79.5235 13.0901 78.8749 13.3274L78.8491 13.3368L78.8236 13.3468Z" fill="#17E4E4"></path><path d="M47.4667 58.7595C47.4667 58.7588 47.4667 58.7582 47.4667 58.7575L47.4188 27.3846C47.2798 26.5539 47.7872 25.8742 47.9604 25.6841C48.2515 25.3648 48.6228 25.1335 49.0104 24.9926L78.8236 13.3468L78.8491 13.3368L78.8749 13.3274C79.5235 13.0901 80.2616 13.0694 80.9283 13.2846C81.5649 13.49 82.6517 14.1459 82.6517 15.4359V70.5671C82.6517 71.8571 81.5649 72.513 80.9283 72.7183C80.2616 72.9336 79.5235 72.9129 78.8749 72.6756L78.8435 72.6641L78.8124 72.6518L49.0497 60.8598C48.498 60.6568 48.116 60.3153 47.8808 59.9928C47.6432 59.6669 47.4674 59.2413 47.4667 58.7595ZM47.4667 58.7595C47.4667 58.7597 47.4667 58.7592 47.4667 58.7595Z" stroke="#030456" stroke-width="3.69224"></path><path d="M39.3189 25.2227L39.0104 25.4189L38.82 25.651L38.8153 25.656C38.7949 25.6781 38.7603 25.7164 38.7204 25.765C38.6414 25.8613 38.5135 26.0319 38.41 26.2664C38.3003 26.5148 38.2393 26.7861 38.2393 27.0691V27.072L38.2875 58.7872C38.2875 58.788 38.2875 58.7887 38.2875 58.7895C38.2875 58.7894 38.2875 58.7897 38.2875 58.7895C38.2883 59.3139 38.4952 59.7233 38.6749 59.9788C38.8493 60.227 39.0819 60.4523 39.3642 60.6316L57.3289 72.2291C58.2225 72.8461 59.2445 72.7665 59.8101 72.6113C60.1474 72.5188 60.5462 72.347 60.9013 72.0432C61.2609 71.7354 61.6849 71.1839 61.6849 70.4201V15.5835C61.6849 14.8196 61.261 14.2683 60.9013 13.9605C60.5463 13.6565 60.1474 13.4847 59.8101 13.3922C59.2465 13.2376 58.2299 13.1581 57.3385 13.7678L39.3189 25.2227Z" fill="#CCBEFF"></path><path d="M38.2875 58.7895C38.2875 58.7887 38.2875 58.788 38.2875 58.7872L38.2393 27.072V27.0691C38.2393 26.7861 38.3003 26.5148 38.41 26.2664C38.5135 26.0319 38.6414 25.8613 38.7204 25.765C38.7603 25.7164 38.7949 25.6781 38.8153 25.656L38.82 25.651L39.0104 25.4189L39.3189 25.2227L57.3385 13.7678C58.2299 13.1581 59.2465 13.2376 59.8101 13.3922C60.1474 13.4847 60.5463 13.6565 60.9013 13.9605C61.261 14.2683 61.6849 14.8196 61.6849 15.5835V70.4201C61.6849 71.1839 61.2609 71.7354 60.9013 72.0432C60.5462 72.347 60.1474 72.5188 59.8101 72.6113C59.2445 72.7665 58.2225 72.8461 57.3289 72.2291L39.3642 60.6316C39.0819 60.4523 38.8493 60.227 38.6749 59.9788C38.4952 59.7233 38.2883 59.3139 38.2875 58.7895ZM38.2875 58.7895C38.2875 58.7897 38.2875 58.7894 38.2875 58.7895ZM38.852 25.6169L38.8497 25.6193" stroke="#030456" stroke-width="3.69224"></path><path d="M43.9547 68.9147L43.9359 68.8929C43.9484 68.9069 43.9607 68.9213 43.973 68.9359L43.9547 68.9147ZM43.9629 17.0493C43.9505 17.0637 43.9381 17.078 43.9256 17.092L43.944 17.0709L43.9629 17.0493ZM29.9302 27.0392V27.042L29.9784 58.8162V58.819V58.8336C29.9786 58.8431 29.9787 58.8575 29.9792 58.8748C29.98 58.909 29.9823 58.9626 29.9889 59.0279C30.0025 59.1611 30.036 59.3547 30.1265 59.5757C30.2421 59.8574 30.4106 60.0895 30.5989 60.2767L40.1795 71.4054C40.9995 72.4439 42.3195 72.4385 42.8703 72.3509C43.2382 72.2924 43.694 72.1523 44.1129 71.8522C44.5489 71.5401 45.0665 70.9467 45.0665 70.0957V15.8775C45.0665 15.0266 44.5489 14.4332 44.1129 14.1211C43.694 13.821 43.2382 13.6809 42.8703 13.6224C42.3211 13.535 41.0071 13.5294 40.1866 14.5588L30.5602 25.5693C30.3679 25.7581 30.1957 25.9933 30.0783 26.2798C29.9876 26.5007 29.9542 26.6944 29.9406 26.8276C29.9339 26.8927 29.9317 26.9465 29.9308 26.9806C29.9304 26.998 29.9302 27.0124 29.9302 27.0217V27.0392Z" fill="#FFE787" stroke="#030456" stroke-width="3.69224"></path><path d="M15.5136 29.7194L15.4365 29.9801V30.2495V30.2514V30.2527V30.257V30.264V30.2663V30.2677V30.2744V30.3085V60.6424V60.6436V60.645V60.6462V60.6475V60.6487V60.65V60.6512V60.6525V60.6537V60.655V60.6562V60.6574V60.6586V60.6598V60.6611V60.6623V60.6636V60.6648V60.666V60.6673V60.6685V60.6697V60.6709V60.6722V60.6734V60.6746V60.6759V60.6771V60.6784V60.6796V60.6808V60.682V60.6832V60.6845V60.6857V60.687V60.6881V60.6894V60.6906V60.6918V60.6931V60.6943V60.6956V60.6968V60.6981V60.6992V60.7006V61.1065L15.6069 61.4823L19.5124 70.0944C19.8366 70.8342 20.4914 71.2233 20.9806 71.3957C21.467 71.567 21.9418 71.5906 22.3214 71.5551C22.6939 71.5202 23.1787 71.4088 23.6384 71.1209C24.1266 70.8153 24.7274 70.1953 24.7274 69.2715V17.0264C24.7274 16.1031 24.1271 15.4792 23.6264 15.1699C23.1551 14.8786 22.6545 14.7691 22.2603 14.7414C21.6892 14.7012 20.0181 14.8334 19.4641 16.3531L19.4436 16.4094L19.4266 16.4667L15.5136 29.7194Z" fill="#FF8700" stroke="#030456" stroke-width="3.69224"></path></g><defs><clipPath id="clip0_373_26"><rect width="98" height="86" fill="white"></rect></clipPath></defs></svg>